<svg width="1990" height="1991" viewBox="0 0 1990 1991" fill="none" xmlns="http://www.w3.org/2000/svg">
<path d="M1813.59 1130.34L1986.13 1080.8C1993.26 999.874 1990.46 919.815 1978.37 842.212L1802.73 804.548C1794.57 769.784 1784.22 735.793 1771.68 702.705L1896.28 573.784C1862.35 501.409 1819.9 433.358 1769.9 371.125L1599.19 426.233C1574.88 400.363 1549.08 376.062 1521.51 353.376L1564.92 179.426C1500.33 134.215 1429.71 96.4124 1354.08 67.2359L1233.87 200.252C1208.89 192.767 1183.39 186.307 1157.31 181.11C1148.27 179.319 1139.27 177.934 1130.32 176.403L1080.84 3.86964C999.85 -3.2408 919.844 -0.485443 842.226 11.5847L804.477 187.325C769.82 195.469 735.792 205.817 702.704 218.338L573.736 93.7642C501.323 127.655 433.257 170.104 371.062 220.122L426.246 390.925C400.422 415.119 376.022 440.982 353.42 468.467L179.417 425.115C134.251 489.645 96.4492 560.206 67.2267 635.987L200.259 756.16C192.765 781.18 186.29 806.637 181.093 832.745C179.279 841.776 177.886 850.723 176.394 859.747L3.82216 909.199C-3.20408 990.131 -0.502392 1070.14 11.5907 1147.81L187.247 1185.44C195.444 1220.13 205.785 1254.12 218.268 1287.22L93.709 1416.22C127.593 1488.65 170.064 1556.75 220.113 1618.92L390.84 1563.82C415.11 1589.69 440.919 1614.02 468.457 1636.61L425.052 1810.61C489.636 1855.79 560.204 1893.57 635.855 1922.82L756.074 1789.75C781.064 1797.23 806.605 1803.75 832.735 1808.95C841.713 1810.79 850.722 1812.12 859.677 1813.59L909.151 1986.23C990.137 1993.31 1070.14 1990.58 1147.78 1978.5L1185.49 1802.82C1220.17 1794.56 1254.22 1784.31 1287.25 1771.79L1416.26 1896.29C1488.62 1862.36 1556.66 1819.98 1618.89 1769.92L1563.8 1599.21C1589.57 1574.92 1613.93 1549.08 1636.6 1521.55L1810.52 1564.97C1855.73 1500.4 1893.52 1429.75 1922.71 1354.09L1789.75 1233.91C1797.16 1208.89 1803.73 1183.4 1808.94 1157.28C1810.72 1148.3 1812.1 1139.36 1813.59 1130.34ZM1655.35 1126.55C1582.58 1491.37 1228.02 1728.13 863.343 1655.36C498.614 1582.7 261.895 1228.03 334.607 863.383C407.318 498.653 761.945 261.965 1126.61 334.692C1491.34 407.419 1728.03 761.992 1655.35 1126.55Z" fill="url(#paint0_linear_36_963)"/>
<path d="M1529.91 1063.66L1582.31 1058.45C1584.46 1038.19 1585.55 1018.01 1585.58 998.046L1534.05 987.271C1533.52 956.358 1530.46 925.969 1524.77 896.252L1572.75 875.212C1568.48 855.406 1563.24 835.97 1557.01 816.814L1504.88 822.438C1494.81 793.513 1482.19 765.577 1467.43 738.928L1506.72 703.994C1496.6 686.531 1485.6 669.577 1473.73 653.2L1425.65 674.75C1407.24 650.429 1386.83 627.608 1364.41 606.649L1390.87 561.509C1375.89 547.97 1360.16 535.266 1343.75 523.316L1304.91 558.353C1279.98 541.016 1253.35 525.77 1225.34 512.718L1236.54 461.415C1218.17 453.286 1199.31 446.014 1179.91 439.732L1153.69 485.212C1130.95 478.413 1107.57 472.877 1083.54 468.953C1076.97 467.874 1070.46 467.12 1063.93 466.285L1058.68 414.028C1038.34 411.952 1018.14 410.843 998.1 410.814L987.286 462.132C956.253 462.627 925.717 465.723 895.938 471.407L874.814 423.592C854.966 427.811 835.407 433.014 816.19 439.222L821.879 491.198C792.789 501.241 764.775 513.79 738.014 528.497L702.954 489.343C685.442 499.453 668.442 510.45 652.029 522.296L673.605 570.141C649.21 588.543 626.254 608.814 605.257 631.162L559.916 604.802C546.44 619.745 533.631 635.405 521.682 651.752L556.853 690.448C539.394 715.309 524.137 741.84 510.986 769.723L459.505 758.623C451.316 776.877 444.04 795.656 437.713 815.048L483.499 841.165C476.593 863.794 470.979 887.066 467.055 911.048C466.017 917.551 465.216 924.055 464.37 930.558L411.984 935.776C409.803 956.055 408.742 976.149 408.72 996.154L460.246 1006.9C460.781 1037.81 463.844 1068.25 469.555 1097.93L421.581 1118.97C425.802 1138.78 431.038 1158.27 437.231 1177.39L489.432 1171.78C499.468 1200.75 512.106 1228.64 526.881 1255.26L487.549 1290.23C497.725 1307.64 508.724 1324.67 520.532 1340.94L568.654 1319.47C587.078 1343.82 607.46 1366.7 629.874 1387.59L603.432 1432.75C618.437 1446.22 634.131 1458.93 650.538 1470.91L689.388 1435.77C714.324 1453.16 740.974 1468.48 768.928 1481.5L757.773 1532.82C776.123 1540.95 794.984 1548.19 814.395 1554.54L840.614 1508.92C863.332 1515.77 886.666 1521.38 910.757 1525.28C917.314 1526.29 923.833 1527.1 930.338 1527.96L935.604 1580.18C955.941 1582.26 976.153 1583.38 996.223 1583.45L1007.02 1532.05C1038.02 1531.53 1068.58 1528.5 1098.38 1522.78L1119.46 1570.56C1139.34 1566.39 1158.91 1561.2 1178.08 1554.99L1172.47 1502.98C1201.51 1492.97 1229.53 1480.39 1256.26 1465.7L1291.32 1504.87C1308.84 1494.75 1325.87 1483.77 1342.25 1471.9L1320.69 1424.05C1345.1 1405.68 1368.04 1385.34 1389.09 1363.03L1434.35 1389.34C1447.89 1374.44 1460.66 1358.8 1472.64 1342.54L1437.45 1303.75C1454.9 1278.93 1470.17 1252.35 1483.28 1224.48L1534.8 1235.58C1542.93 1217.29 1550.27 1198.53 1556.56 1179.2L1510.78 1153.06C1517.71 1130.43 1523.28 1107.19 1527.21 1083.12C1528.3 1076.67 1529.08 1070.19 1529.91 1063.66ZM1258.08 1039.51C1234.64 1183.03 1098.79 1280.53 954.614 1257.16C810.501 1233.77 712.663 1098.39 736.16 954.754C759.642 811.101 895.537 713.668 1039.7 736.999C1183.8 760.471 1281.61 895.816 1258.08 1039.51Z" fill="#7BD0FB"/>
<path d="M1360.68 1116.42L1265.99 1044.56C1267.3 1037.54 1268.38 1030.48 1269.08 1023.5L1380.13 981.076C1379.35 959.555 1376.75 938.269 1372.39 917.353L1254.42 902.476C1252.02 895.81 1249.42 889.208 1246.53 882.747L1321.54 790.45C1310.19 772.378 1297.38 755.197 1283.1 739.03L1173.49 785.133C1168.11 780.543 1162.47 776.185 1156.69 771.995L1175.47 654.665C1166.05 649.705 1156.44 645.008 1146.49 640.743C1136.55 636.472 1126.53 632.79 1116.41 629.419L1044.55 724.108C1037.52 722.827 1030.49 721.738 1023.47 720.994L981.053 609.914C959.527 610.727 938.219 613.372 917.323 617.692L902.399 735.656C895.722 738.035 889.159 740.701 882.703 743.577L790.392 668.56C772.322 679.89 755.093 692.723 739.002 706.988L785.064 816.606C780.487 822.004 776.157 827.605 771.951 833.433L654.6 814.62C649.643 824.023 644.92 833.624 640.658 843.57C636.403 853.549 632.723 863.576 629.345 873.675L724.035 945.523C722.748 952.534 721.666 959.574 720.938 966.582L609.867 1009.01C610.677 1030.56 613.306 1051.84 617.617 1072.73L735.624 1087.59C737.988 1094.29 740.64 1100.86 743.514 1107.32L668.52 1199.64C679.822 1217.73 692.66 1234.93 706.956 1251.02L816.564 1204.94C821.934 1209.52 827.558 1213.87 833.351 1218.04L814.548 1335.4C823.988 1340.34 833.598 1345.06 843.516 1349.33C853.479 1353.59 863.537 1357.27 873.643 1360.63L945.497 1265.96C952.515 1267.24 959.521 1268.34 966.552 1269.05L1008.99 1380.14C1030.52 1379.31 1051.81 1376.72 1072.71 1372.4L1087.62 1254.42C1094.28 1251.98 1100.87 1249.35 1107.32 1246.5L1199.63 1321.48C1217.72 1310.16 1234.93 1297.36 1251.05 1283.06L1204.97 1173.49C1209.49 1168.1 1213.86 1162.45 1218.06 1156.65L1335.4 1175.42C1340.39 1166.07 1345.12 1156.43 1349.36 1146.47C1353.62 1136.57 1357.32 1126.5 1360.68 1116.42ZM1132.1 1053.64C1099.74 1129.29 1012.14 1164.44 936.421 1132.1C860.712 1099.74 825.585 1012.14 857.939 936.439C890.31 860.729 977.907 825.638 1053.6 857.966C1129.32 890.339 1164.46 977.916 1132.1 1053.64Z" fill="url(#paint1_linear_36_963)"/>
<defs>
<linearGradient id="paint0_linear_36_963" x1="459.971" y1="144.342" x2="1637.8" y2="1680.15" gradientUnits="userSpaceOnUse">
<stop stop-color="#00B6F1"/>
<stop offset="0.395" stop-color="#007DB0"/>
<stop offset="1" stop-color="#006AAF"/>
</linearGradient>
<linearGradient id="paint1_linear_36_963" x1="1314.48" y1="1245.19" x2="746.731" y2="698.617" gradientUnits="userSpaceOnUse">
<stop stop-color="#00C2FF"/>
<stop offset="0.545" stop-color="#0070B5"/>
<stop offset="1" stop-color="#005099"/>
</linearGradient>
</defs>
</svg>
